<mxfile host="app.diagrams.net" modified="2023-09-19T07:20:12.707Z" agent="Mozilla/5.0 (Windows NT 10.0; Win64; x64) AppleWebKit/537.36 (KHTML, like Gecko) Chrome/117.0.0.0 Safari/537.36 Edg/117.0.2045.31" etag="yBRQu50KA5PTN2LBWu43" version="21.7.5" type="device">
  <diagram name="Страница — 1" id="nNSFclxgG3aPXU9OYFXP">
    <mxGraphModel dx="1426" dy="1962" grid="1" gridSize="10" guides="1" tooltips="1" connect="1" arrows="1" fold="1" page="1" pageScale="1" pageWidth="827" pageHeight="1169" math="0" shadow="0">
      <root>
        <mxCell id="0" />
        <mxCell id="1" parent="0" />
        <mxCell id="oXrdSlbjQtKc-843uz5V-1" value="моделирование ВАХ" style="rounded=0;whiteSpace=wrap;html=1;" vertex="1" parent="1">
          <mxGeometry x="310" y="-607" width="180" height="105" as="geometry" />
        </mxCell>
        <mxCell id="oXrdSlbjQtKc-843uz5V-2" value="" style="endArrow=classic;html=1;rounded=0;entryX=0;entryY=0.25;entryDx=0;entryDy=0;" edge="1" parent="1" target="oXrdSlbjQtKc-843uz5V-1">
          <mxGeometry width="50" height="50" relative="1" as="geometry">
            <mxPoint x="230" y="-580" as="sourcePoint" />
            <mxPoint x="430" y="-560" as="targetPoint" />
          </mxGeometry>
        </mxCell>
        <mxCell id="oXrdSlbjQtKc-843uz5V-3" value="" style="endArrow=classic;html=1;rounded=0;entryX=0;entryY=0.25;entryDx=0;entryDy=0;" edge="1" parent="1">
          <mxGeometry width="50" height="50" relative="1" as="geometry">
            <mxPoint x="230" y="-520" as="sourcePoint" />
            <mxPoint x="310" y="-520" as="targetPoint" />
          </mxGeometry>
        </mxCell>
        <mxCell id="oXrdSlbjQtKc-843uz5V-4" value="информация о ВАХ электроприборов" style="text;html=1;strokeColor=none;fillColor=none;align=center;verticalAlign=middle;whiteSpace=wrap;rounded=0;" vertex="1" parent="1">
          <mxGeometry x="190" y="-640" width="120" height="53" as="geometry" />
        </mxCell>
        <mxCell id="oXrdSlbjQtKc-843uz5V-5" value="информация об имеющемся товаре" style="text;html=1;strokeColor=none;fillColor=none;align=center;verticalAlign=middle;whiteSpace=wrap;rounded=0;" vertex="1" parent="1">
          <mxGeometry x="180" y="-520" width="120" height="53" as="geometry" />
        </mxCell>
        <mxCell id="oXrdSlbjQtKc-843uz5V-6" value="" style="endArrow=classic;html=1;rounded=0;entryX=0.539;entryY=1.057;entryDx=0;entryDy=0;entryPerimeter=0;" edge="1" parent="1">
          <mxGeometry width="50" height="50" relative="1" as="geometry">
            <mxPoint x="400" y="-440" as="sourcePoint" />
            <mxPoint x="402.02" y="-496.0150000000001" as="targetPoint" />
          </mxGeometry>
        </mxCell>
        <mxCell id="oXrdSlbjQtKc-843uz5V-7" value="НС" style="text;html=1;strokeColor=none;fillColor=none;align=center;verticalAlign=middle;whiteSpace=wrap;rounded=0;" vertex="1" parent="1">
          <mxGeometry x="370" y="-420" width="60" height="30" as="geometry" />
        </mxCell>
        <mxCell id="oXrdSlbjQtKc-843uz5V-8" value="" style="endArrow=classic;html=1;rounded=0;entryX=0;entryY=0.25;entryDx=0;entryDy=0;" edge="1" parent="1">
          <mxGeometry width="50" height="50" relative="1" as="geometry">
            <mxPoint x="490" y="-579" as="sourcePoint" />
            <mxPoint x="570" y="-580" as="targetPoint" />
          </mxGeometry>
        </mxCell>
        <mxCell id="oXrdSlbjQtKc-843uz5V-9" value="" style="endArrow=classic;html=1;rounded=0;entryX=0.5;entryY=0;entryDx=0;entryDy=0;" edge="1" parent="1">
          <mxGeometry width="50" height="50" relative="1" as="geometry">
            <mxPoint x="350" y="-680" as="sourcePoint" />
            <mxPoint x="350" y="-607" as="targetPoint" />
          </mxGeometry>
        </mxCell>
        <mxCell id="oXrdSlbjQtKc-843uz5V-10" value="методика анализа ВАХ" style="text;html=1;strokeColor=none;fillColor=none;align=center;verticalAlign=middle;whiteSpace=wrap;rounded=0;" vertex="1" parent="1">
          <mxGeometry x="320" y="-730" width="60" height="30" as="geometry" />
        </mxCell>
        <mxCell id="oXrdSlbjQtKc-843uz5V-11" value="отчет об анализе ВАХ" style="text;html=1;strokeColor=none;fillColor=none;align=center;verticalAlign=middle;whiteSpace=wrap;rounded=0;" vertex="1" parent="1">
          <mxGeometry x="570" y="-617" width="60" height="30" as="geometry" />
        </mxCell>
        <mxCell id="oXrdSlbjQtKc-843uz5V-13" style="edgeStyle=orthogonalEdgeStyle;rounded=0;orthogonalLoop=1;jettySize=auto;html=1;entryX=0.75;entryY=0;entryDx=0;entryDy=0;" edge="1" parent="1" source="oXrdSlbjQtKc-843uz5V-12" target="oXrdSlbjQtKc-843uz5V-1">
          <mxGeometry relative="1" as="geometry" />
        </mxCell>
        <mxCell id="oXrdSlbjQtKc-843uz5V-12" value="ГОСТ Р 52084-2003" style="text;html=1;strokeColor=none;fillColor=none;align=center;verticalAlign=middle;whiteSpace=wrap;rounded=0;" vertex="1" parent="1">
          <mxGeometry x="380" y="-730" width="130" height="30" as="geometry" />
        </mxCell>
      </root>
    </mxGraphModel>
  </diagram>
</mxfile>
